<svg xmlns="http://www.w3.org/2000/svg" direction="ltr" width="1193" height="896.0000000000001" viewBox="-38.50653076171875 61.1666259765625 1193 896.0000000000001" stroke-linecap="round" stroke-linejoin="round" data-color-mode="light" class="tl-container tl-theme__force-sRGB tl-theme__light" style="background-color: transparent;"><defs/><g transform="matrix(1, 0, 0, 1, -38.5065, 61.1666)" opacity="1"><g data-lovart-layer-name="SVG 1"><g transform="scale(1, 1.0000000000000002)"><g>
<g xmlns="http://www.w3.org/2000/svg" stroke-width="2.00" fill="none" stroke-linecap="butt">
<path stroke="#4c5447" d="M 796.23 377.12   A 0.46 0.46 0.0 0 0 797.12 377.31   C 801.91 364.15 806.76 352.42 819.64 345.62   Q 826.04 342.24 841.43 340.35   Q 857.56 338.37 863.88 338.30   Q 900.27 337.93 945.75 335.56   Q 949.27 335.37 953.54 334.94   A 0.87 0.86 88.5 0 0 954.32 334.11   Q 954.44 331.51 954.19 321.86   C 953.82 307.63 915.48 312.24 906.50 313.18   C 888.62 315.04 877.74 316.38 862.72 315.39   Q 854.64 314.86 851.12 309.11   C 849.12 305.86 848.60 298.00 845.03 296.73   C 838.40 294.36 830.08 294.33 823.00 294.57   C 815.60 294.83 809.50 296.79 806.45 303.97   Q 804.03 309.69 803.04 315.56   Q 798.12 344.93 796.23 377.12"/>
<path stroke="#4c5447" d="M 933.85 434.69   Q 942.26 431.53 947.35 422.61   Q 953.04 412.67 958.82 399.32   Q 959.87 396.89 959.49 395.09"/>
<path stroke="#4c5447" d="M 960.04 393.42   Q 960.05 394.10 960.12 394.24   A 0.40 0.39 32.1 0 0 960.87 394.07   Q 960.89 392.97 960.28 392.99"/>
<path stroke="#4c5447" d="M 960.97 391.52   Q 960.75 392.15 960.90 392.35   A 0.44 0.44 0.0 0 0 961.67 392.23   Q 961.96 391.36 961.23 390.95"/>
<path stroke="#4c5447" d="M 961.97 388.93   Q 962.06 389.24 962.24 389.38   Q 962.50 389.57 962.71 389.34   Q 963.05 388.99 962.92 388.64   A 0.38 0.38 0.0 0 0 962.25 388.54   L 961.97 388.93"/>
<path stroke="#4c5447" d="M 963.04 386.29   L 962.86 387.23   A 0.39 0.38 -23.9 0 0 963.57 387.50   Q 964.04 386.72 963.81 386.00"/>
<path stroke="#4c5447" d="M 963.81 386.00   Q 964.17 386.23 964.33 385.84   Q 967.72 377.61 975.94 356.91   Q 977.75 352.36 978.12 346.94   A 1.46 1.45 -2.4 0 0 976.44 345.40   Q 976.04 345.46 975.20 345.14"/>
<path stroke="#4c5447" d="M 975.73 347.52   L 974.94 350.22"/>
<path stroke="#4c5447" d="M 963.81 386.00   Q 963.83 385.48 963.66 384.98"/>
<path stroke="#4c5447" d="M 966.28 377.72   L 966.80 376.79"/>
<path stroke="#4c5447" d="M 976.16 350.01   Q 976.30 349.95 976.44 349.89"/>
<path stroke="#4c5447" d="M 963.81 386.00   L 963.29 386.03"/>
<path stroke="#4c5447" d="M 966.03 374.77   Q 965.88 375.71 965.56 376.30"/>
</g>
<path xmlns="http://www.w3.org/2000/svg" fill="#000000" d="M 929.32 284.00   A 1.96 1.94 -9.2 0 1 927.50 282.70   C 923.97 272.78 920.44 262.21 921.88 251.59   C 922.15 249.66 924.25 245.47 926.88 246.48   Q 930.49 247.85 932.02 251.78   C 935.42 260.53 937.11 274.42 933.66 282.78   A 2.05 2.04 -78.0 0 1 931.73 284.04   L 929.32 284.00   Z"/>
<ellipse xmlns="http://www.w3.org/2000/svg" fill="#000000" cx="0.00" cy="0.00" transform="translate(967.33,270.96) rotate(-47.1)" rx="22.13" ry="7.31"/>
<path xmlns="http://www.w3.org/2000/svg" fill="#000000" d="M 856.39 305.59   Q 859.42 307.66 862.98 307.83   Q 874.96 308.39 878.38 307.79   Q 882.74 307.04 886.03 306.92   A 4.58 4.57 -53.8 0 0 887.11 306.75   Q 890.04 305.88 893.14 305.87   Q 894.78 305.87 899.21 305.33   Q 903.81 304.77 908.33 304.88   A 1.39 1.33 28.7 0 0 909.08 304.68   Q 909.88 304.18 910.27 304.18   Q 913.43 304.10 917.81 303.80   Q 930.58 302.92 942.17 305.10   Q 947.47 306.10 952.64 308.86   C 961.43 313.56 964.20 324.04 962.28 333.32   A 0.88 0.87 -85.0 0 0 963.16 334.37   Q 971.98 334.15 980.03 336.76   C 986.63 338.91 986.70 343.77 985.87 350.21   Q 985.37 354.06 982.54 361.80   C 973.31 386.99 965.38 407.79 954.02 428.06   Q 950.63 434.11 947.90 439.64   C 943.62 448.34 924.66 454.87 916.22 456.93   Q 902.79 460.20 898.51 460.76   C 891.79 461.65 886.73 462.79 880.13 463.40   C 858.98 465.37 838.19 466.34 817.69 464.74   C 806.16 463.84 795.45 462.38 785.69 458.99   C 776.93 455.94 774.41 446.26 773.68 438.02   Q 771.91 417.92 773.41 393.33   Q 774.65 373.00 776.51 356.98   Q 777.78 345.99 781.74 326.82   C 782.71 322.09 784.99 314.63 786.19 311.44   Q 789.46 302.73 794.50 298.33   Q 803.14 290.79 815.50 287.21   Q 821.80 285.39 829.08 286.17   Q 838.32 287.17 845.37 289.39   Q 849.84 290.80 852.20 294.25   A 2.32 2.24 20.1 0 1 852.49 294.85   L 855.40 304.25   A 2.55 2.52 8.8 0 0 856.39 305.59   Z   M 796.23 377.12   A 0.46 0.46 0.0 0 0 797.12 377.31   C 801.91 364.15 806.76 352.42 819.64 345.62   Q 826.04 342.24 841.43 340.35   Q 857.56 338.37 863.88 338.30   Q 900.27 337.93 945.75 335.56   Q 949.27 335.37 953.54 334.94   A 0.87 0.86 88.5 0 0 954.32 334.11   Q 954.44 331.51 954.19 321.86   C 953.82 307.63 915.48 312.24 906.50 313.18   C 888.62 315.04 877.74 316.38 862.72 315.39   Q 854.64 314.86 851.12 309.11   C 849.12 305.86 848.60 298.00 845.03 296.73   C 838.40 294.36 830.08 294.33 823.00 294.57   C 815.60 294.83 809.50 296.79 806.45 303.97   Q 804.03 309.69 803.04 315.56   Q 798.12 344.93 796.23 377.12   Z   M 933.85 434.69   Q 942.26 431.53 947.35 422.61   Q 953.04 412.67 958.82 399.32   Q 959.87 396.89 959.49 395.09   Q 959.04 394.69 960.04 393.42   Q 960.05 394.10 960.12 394.24   A 0.40 0.39 32.1 0 0 960.87 394.07   Q 960.89 392.97 960.28 392.99   Q 960.32 392.21 960.97 391.52   Q 960.75 392.15 960.90 392.35   A 0.44 0.44 0.0 0 0 961.67 392.23   Q 961.96 391.36 961.23 390.95   Q 961.30 389.65 961.97 388.93   Q 962.06 389.24 962.24 389.38   Q 962.50 389.57 962.71 389.34   Q 963.05 388.99 962.92 388.64   A 0.38 0.38 0.0 0 0 962.25 388.54   L 961.97 388.93   Q 961.95 387.37 963.04 386.29   L 962.86 387.23   A 0.39 0.38 -23.9 0 0 963.57 387.50   Q 964.04 386.72 963.81 386.00   Q 964.17 386.23 964.33 385.84   Q 967.72 377.61 975.94 356.91   Q 977.75 352.36 978.12 346.94   A 1.46 1.45 -2.4 0 0 976.44 345.40   Q 976.04 345.46 975.20 345.14   Q 967.96 343.16 959.50 343.96   Q 931.44 346.64 927.43 347.11   Q 919.99 347.98 894.25 348.58   Q 876.44 348.99 862.77 349.05   Q 859.19 349.07 853.75 349.55   C 844.83 350.34 836.17 351.06 827.61 353.39   Q 816.80 356.34 811.59 366.36   Q 805.96 377.19 802.78 386.29   C 798.25 399.28 794.20 410.25 792.34 422.27   C 791.65 426.75 791.12 432.55 794.63 435.05   C 800.27 439.07 807.20 439.58 815.68 440.86   Q 819.32 441.41 834.72 440.97   C 838.54 440.86 841.92 440.16 845.82 440.07   Q 849.10 439.99 854.17 439.43   Q 863.44 438.40 871.74 437.69   Q 877.47 437.19 903.16 436.73   C 909.81 436.61 917.00 436.19 922.50 435.97   Q 927.82 435.75 933.85 434.69   Z"/>
<path xmlns="http://www.w3.org/2000/svg" fill="#000000" d="M 994.02 308.69   C 987.58 311.46 981.67 312.73 975.17 310.49   C 972.14 309.45 971.56 306.59 973.77 304.30   C 977.60 300.33 983.02 297.36 988.19 295.13   C 993.36 292.91 999.24 291.02 1004.76 290.96   C 1007.94 290.93 1009.62 293.32 1008.29 296.23   C 1005.45 302.49 1000.46 305.92 994.02 308.69   Z"/>
<path xmlns="http://www.w3.org/2000/svg" fill="#97a88d" d="M 796.23 377.12   Q 798.12 344.93 803.04 315.56   Q 804.03 309.69 806.45 303.97   C 809.50 296.79 815.60 294.83 823.00 294.57   C 830.08 294.33 838.40 294.36 845.03 296.73   C 848.60 298.00 849.12 305.86 851.12 309.11   Q 854.64 314.86 862.72 315.39   C 877.74 316.38 888.62 315.04 906.50 313.18   C 915.48 312.24 953.82 307.63 954.19 321.86   Q 954.44 331.51 954.32 334.11   A 0.87 0.86 88.5 0 1 953.54 334.94   Q 949.27 335.37 945.75 335.56   Q 900.27 337.93 863.88 338.30   Q 857.56 338.37 841.43 340.35   Q 826.04 342.24 819.64 345.62   C 806.76 352.42 801.91 364.15 797.12 377.31   A 0.46 0.46 0.0 0 1 796.23 377.12   Z"/>
<path xmlns="http://www.w3.org/2000/svg" fill="#97a88d" d="M 963.81 386.00   Q 963.83 385.48 963.66 384.98   L 966.28 377.72   L 966.80 376.79   Q 968.46 373.70 972.76 363.28   Q 975.04 357.74 975.18 353.53   A 1.67 1.63 64.1 0 1 975.47 352.66   Q 976.19 351.61 976.16 350.01   Q 976.30 349.95 976.44 349.89   Q 977.89 346.36 975.20 345.14   Q 976.04 345.46 976.44 345.40   A 1.46 1.45 -2.4 0 1 978.12 346.94   Q 977.75 352.36 975.94 356.91   Q 967.72 377.61 964.33 385.84   Q 964.17 386.23 963.81 386.00   Z"/>
<path xmlns="http://www.w3.org/2000/svg" fill="#97a88d" d="M 975.73 347.52   L 974.94 350.22   Q 975.16 350.85 975.06 351.31   A 0.32 0.32 0.0 0 1 974.48 351.42   L 972.53 348.63   A 1.34 1.32 -16.4 0 0 971.48 348.07   L 971.15 348.06   A 0.55 0.55 0.0 0 1 971.06 346.97   Q 972.49 346.72 973.54 346.13   A 1.19 1.17 40.6 0 1 974.54 346.06   Q 975.58 346.45 975.73 347.52   Z"/>
<path xmlns="http://www.w3.org/2000/svg" fill="#000000" d="M 975.73 347.52   Q 976.19 348.63 976.06 349.48   L 974.94 350.22   L 975.73 347.52   Z"/>
<path xmlns="http://www.w3.org/2000/svg" fill="#000000" d="M 976.44 349.89   Q 976.30 349.95 976.16 350.01   L 976.06 349.48   Q 976.33 349.67 976.44 349.89   Z"/>
<path xmlns="http://www.w3.org/2000/svg" fill="#97a88d" d="M 956.26 362.37   A 0.63 0.62 -84.4 0 0 955.60 361.56   C 947.56 362.36 941.47 363.07 934.56 364.19   C 926.94 365.42 910.00 366.83 905.02 359.15   A 0.72 0.72 0.0 0 1 905.10 358.27   Q 906.66 356.57 908.68 356.14   C 924.13 352.86 939.77 351.08 954.73 350.17   Q 960.34 349.82 965.33 351.64   A 1.93 1.91 85.7 0 1 966.38 352.55   C 969.16 357.64 968.53 361.26 966.13 366.68   Q 964.26 370.89 963.03 374.78   A 12.75 12.65 72.1 0 1 961.17 378.45   Q 955.03 386.84 953.87 390.14   Q 952.54 393.94 951.73 395.36   Q 949.56 399.13 949.08 400.36   Q 946.56 406.89 942.61 414.60   C 941.84 416.10 940.10 418.66 938.05 417.72   C 934.83 416.23 935.89 410.45 936.85 407.83   C 941.60 394.80 944.90 386.72 950.53 376.03   Q 954.13 369.20 956.26 362.37   Z"/>
<path xmlns="http://www.w3.org/2000/svg" fill="#000000" d="M 890.93 372.94   A 3.90 3.67 72.9 0 1 889.09 376.69   C 886.17 378.31 882.73 377.91 877.70 377.96   Q 875.04 377.98 870.83 378.43   C 859.58 379.63 847.11 378.83 836.85 373.11   A 1.75 1.71 -61.3 0 1 836.20 370.77   C 836.86 369.54 837.82 369.73 838.86 369.19   Q 844.92 366.06 856.92 365.17   Q 871.46 364.10 884.67 368.32   C 886.67 368.96 890.70 370.79 890.93 372.94   Z"/>
<path xmlns="http://www.w3.org/2000/svg" fill="#97a88d" d="M 966.03 374.77   Q 965.88 375.71 965.56 376.30   Q 964.87 376.22 964.85 375.51   Q 964.82 374.60 965.37 373.93   A 0.34 0.33 55.2 0 1 965.95 374.04   Q 966.07 374.37 966.03 374.77   Z"/>
<path xmlns="http://www.w3.org/2000/svg" fill="#000000" d="M 966.05 376.50   Q 965.72 376.50 965.56 376.30   Q 965.88 375.71 966.03 374.77   Q 966.24 375.69 966.05 376.50   Z"/>
<path xmlns="http://www.w3.org/2000/svg" fill="#000000" d="M 966.80 376.79   L 966.28 377.72   Q 965.93 376.83 966.05 376.50   L 966.80 376.79   Z"/>
<path xmlns="http://www.w3.org/2000/svg" fill="#000000" d="M 963.66 384.98   Q 963.83 385.48 963.81 386.00   L 963.29 386.03   Q 963.27 385.46 963.66 384.98   Z"/>
<path xmlns="http://www.w3.org/2000/svg" fill="#97a88d" d="M 963.81 386.00   Q 964.04 386.72 963.57 387.50   A 0.39 0.38 -23.9 0 1 962.86 387.23   L 963.04 386.29   L 963.29 386.03   L 963.81 386.00   Z"/>
<path xmlns="http://www.w3.org/2000/svg" fill="#97a88d" d="M 961.97 388.93   L 962.25 388.54   A 0.38 0.38 0.0 0 1 962.92 388.64   Q 963.05 388.99 962.71 389.34   Q 962.50 389.57 962.24 389.38   Q 962.06 389.24 961.97 388.93   Z"/>
<path xmlns="http://www.w3.org/2000/svg" fill="#97a88d" d="M 960.97 391.52   L 961.23 390.95   Q 961.96 391.36 961.67 392.23   A 0.44 0.44 0.0 0 1 960.90 392.35   Q 960.75 392.15 960.97 391.52   Z"/>
<path xmlns="http://www.w3.org/2000/svg" fill="#97a88d" d="M 960.04 393.42   Q 960.19 393.29 960.28 392.99   Q 960.89 392.97 960.87 394.07   A 0.40 0.39 32.1 0 1 960.12 394.24   Q 960.05 394.10 960.04 393.42   Z"/>
<path xmlns="http://www.w3.org/2000/svg" fill="#97a88d" d="M 933.85 434.69   Q 938.01 432.68 941.12 429.62   C 944.32 426.48 947.26 422.28 949.08 418.07   C 950.41 414.97 952.00 412.52 953.40 409.16   Q 956.26 402.30 959.49 395.09   Q 959.87 396.89 958.82 399.32   Q 953.04 412.67 947.35 422.61   Q 942.26 431.53 933.85 434.69   Z"/>
<path xmlns="http://www.w3.org/2000/svg" fill="#000000" d="M 1014.65 525.84   L 1002.02 525.64   A 2.85 2.85 0.0 0 1 999.22 522.74   L 1000.78 428.61   A 2.85 2.85 0.0 0 1 1003.68 425.81   L 1019.99 426.08   A 2.85 2.85 0.0 0 1 1022.79 429.09   L 1017.54 523.15   A 2.85 2.85 0.0 0 1 1014.65 525.84   Z"/>
<path xmlns="http://www.w3.org/2000/svg" fill="#000000" d="M 710.37 565.80   A 1.21 1.21 0.0 0 1 709.18 564.56   Q 709.42 553.35 709.76 547.48   C 711.00 526.29 711.23 503.49 712.02 486.76   Q 712.40 478.58 714.70 469.73   C 717.80 457.82 726.78 446.85 738.70 442.80   Q 750.50 438.79 762.04 438.88   A 1.26 1.26 0.0 0 1 763.29 440.19   L 762.64 456.15   A 1.19 1.19 0.0 0 1 761.53 457.29   C 751.04 457.99 743.32 459.35 737.78 468.74   C 733.90 475.32 733.59 484.74 733.21 492.50   A 1.34 1.33 1.2 0 0 734.55 493.89   Q 770.40 493.67 793.25 493.66   Q 799.42 493.66 808.46 492.56   C 819.38 491.22 828.65 489.76 837.09 485.54   A 1.55 1.55 0.0 0 1 838.04 485.39   Q 840.14 485.70 840.92 487.38   Q 843.37 492.64 846.86 498.75   A 2.23 2.23 0.0 0 1 845.89 501.86   Q 832.96 508.08 818.51 509.77   Q 801.63 511.74 786.27 511.85   Q 764.45 512.02 733.82 511.86   A 1.34 1.34 0.0 0 0 732.47 513.15   L 730.37 564.78   A 1.39 1.38 1.5 0 1 728.96 566.11   L 710.37 565.80   Z"/>
<path xmlns="http://www.w3.org/2000/svg" fill="#000000" d="M 215.53 513.25   A 0.81 0.81 0.0 0 0 214.56 512.38   Q 196.13 516.28 183.43 529.11   A 1.60 1.60 0.0 0 1 181.07 529.02   Q 177.26 524.56 171.33 518.35   Q 168.69 515.59 171.45 513.00   C 183.71 501.46 198.70 495.77 215.19 492.78   A 0.98 0.97 -4.1 0 0 215.99 491.86   L 217.98 442.99   A 2.30 2.30 0.0 0 1 220.32 440.78   L 237.94 441.07   A 1.49 1.49 0.0 0 1 239.40 442.62   L 237.49 489.53   A 1.29 1.29 0.0 0 0 238.79 490.87   C 256.03 490.81 272.74 493.36 289.57 496.68   A 1.22 1.21 -83.8 0 0 291.01 495.52   Q 291.27 485.81 292.56 443.04   Q 292.63 440.94 295.25 440.93   Q 308.44 440.91 310.76 441.05   Q 311.86 441.11 313.39 441.54   A 1.18 1.17 9.4 0 1 314.24 442.72   L 309.29 564.74   A 1.43 1.42 -88.4 0 1 307.84 566.12   L 289.63 565.82   A 1.68 1.68 0.0 0 1 287.98 564.07   L 289.90 516.78   A 0.65 0.65 0.0 0 0 289.37 516.12   Q 287.76 515.85 276.69 513.64   Q 259.34 510.18 238.61 509.40   A 1.91 1.90 -87.7 0 0 236.64 511.23   L 234.47 564.61   A 1.31 1.31 0.0 0 1 233.17 565.87   Q 231.81 565.88 215.14 565.90   Q 212.74 565.90 212.87 562.93   C 213.33 552.22 214.12 541.78 214.39 531.01   Q 214.60 522.45 215.53 513.25   Z"/>
<path xmlns="http://www.w3.org/2000/svg" fill="#000000" d="M 452.89 555.36   A 1.07 1.06 24.5 0 0 451.04 556.05   Q 450.38 582.06 449.80 600.50   Q 449.74 602.26 449.34 603.49   A 0.84 0.84 0.0 0 1 448.56 604.06   Q 439.04 604.25 431.22 604.17   C 427.81 604.14 428.40 601.15 428.55 598.39   C 429.63 579.19 429.79 563.11 430.49 544.54   C 431.56 516.13 432.25 498.73 429.78 476.04   A 1.60 1.60 0.0 0 1 431.26 474.27   C 438.22 473.80 443.67 473.01 448.35 474.00   A 1.23 1.21 2.4 0 1 449.31 475.03   L 450.76 486.19   A 1.01 1.01 0.0 0 0 452.60 486.63   C 462.97 471.12 484.29 469.01 500.26 475.83   C 525.37 486.53 530.46 518.93 520.81 541.62   Q 512.08 562.15 490.68 566.71   Q 473.99 570.27 459.38 561.38   C 456.77 559.79 455.10 557.79 452.89 555.36   Z   M 479.6585 490.0166   A 29.89 26.57 -86.8 0 0 451.4614 518.3768   A 29.89 26.57 -86.8 0 0 476.3215 549.7034   A 29.89 26.57 -86.8 0 0 504.5186 521.3432   A 29.89 26.57 -86.8 0 0 479.6585 490.0166   Z"/>
<path xmlns="http://www.w3.org/2000/svg" fill="#000000" d="M 558.57 529.75   A 0.88 0.88 0.0 0 0 557.73 530.90   C 562.11 544.72 574.73 550.66 588.75 550.02   Q 596.01 549.68 604.37 545.84   C 608.27 544.04 611.99 540.83 615.54 538.68   A 1.83 1.83 0.0 0 1 617.97 539.17   L 625.64 549.71   A 2.10 2.09 -40.1 0 1 625.40 552.45   Q 615.78 561.79 602.84 565.33   C 588.33 569.29 570.87 568.51 557.76 560.74   Q 540.42 550.47 535.94 531.56   Q 532.20 515.83 538.77 500.40   Q 548.22 478.20 572.67 473.07   Q 583.29 470.84 595.10 473.42   Q 612.62 477.26 621.17 492.19   C 625.29 499.39 626.75 508.24 626.05 516.03   Q 625.90 517.67 623.56 518.59   Q 611.45 523.33 595.56 526.32   Q 577.18 529.77 558.57 529.75   Z   M 606.06 505.20   C 606.53 502.35 602.14 496.76 600.31 494.92   Q 597.19 491.78 591.91 490.32   C 575.63 485.83 560.22 493.18 556.63 510.36   A 1.32 1.32 0.0 0 0 557.90 511.95   Q 575.56 512.14 593.68 509.12   Q 599.39 508.16 605.20 506.22   A 1.29 1.28 -4.9 0 0 606.06 505.20   Z"/>
<path xmlns="http://www.w3.org/2000/svg" fill="#000000" d="M 663.60 490.13   C 664.23 488.63 665.18 486.05 666.28 484.38   Q 675.24 470.79 691.79 472.20   Q 696.72 472.62 699.78 474.34   A 3.08 3.07 -70.0 0 1 701.29 477.59   L 698.22 493.56   A 1.32 1.32 0.0 0 1 696.35 494.50   C 682.24 487.62 669.72 495.35 665.53 509.52   C 663.96 514.86 663.01 520.90 662.68 527.24   Q 661.83 543.31 660.29 564.87   A 1.08 1.07 1.5 0 1 659.24 565.86   Q 652.16 566.01 641.52 565.79   Q 639.32 565.74 639.58 563.26   Q 640.43 555.33 640.53 552.25   Q 641.01 536.42 641.82 520.26   Q 642.20 512.69 641.92 495.22   C 641.82 488.56 640.41 481.66 640.57 475.29   A 0.89 0.88 87.4 0 1 641.35 474.43   Q 650.37 473.31 658.76 473.77   A 1.43 1.42 -2.4 0 1 660.10 475.00   L 662.03 489.92   A 0.82 0.82 0.0 0 0 663.60 490.13   Z"/>
<path xmlns="http://www.w3.org/2000/svg" fill="#000000" d="M 388.53 552.78   Q 388.36 552.94 386.54 555.05   C 377.57 565.45 363.85 567.77 350.93 564.03   C 342.46 561.58 335.21 553.95 332.14 545.60   C 328.22 534.93 328.66 524.30 329.40 512.47   C 330.06 501.69 330.59 496.82 330.90 487.60   Q 331.09 481.90 331.86 474.81   A 1.07 1.07 0.0 0 1 332.93 473.86   Q 342.42 474.03 350.90 473.59   Q 353.15 473.47 352.93 476.29   Q 350.58 506.47 350.13 521.77   C 349.94 528.46 351.71 538.80 357.55 542.94   Q 367.16 549.76 378.16 544.17   C 386.35 540.01 390.25 530.31 390.40 521.34   C 390.47 517.37 391.09 511.74 391.16 506.22   Q 391.36 490.93 392.72 474.84   A 1.20 1.20 0.0 0 1 393.93 473.75   L 411.82 474.05   A 1.40 1.39 -2.0 0 1 413.19 475.32   Q 413.37 477.22 413.21 481.75   Q 411.20 540.38 410.32 562.00   Q 410.05 568.64 408.20 576.74   C 404.42 593.35 391.65 604.35 374.93 606.87   Q 350.00 610.64 329.00 596.95   Q 327.78 596.15 326.83 594.21   A 1.14 1.13 -44.7 0 1 326.84 593.21   Q 329.72 587.52 332.68 581.67   C 334.41 578.25 336.25 579.58 338.75 581.32   Q 349.53 588.84 362.53 589.57   C 372.48 590.13 383.91 585.11 387.23 575.05   Q 388.80 570.30 389.01 567.00   Q 389.40 560.63 390.16 553.59   A 0.97 0.97 0.0 0 0 388.53 552.78   Z"/>
<path xmlns="http://www.w3.org/2000/svg" fill="#000000" d="M 937.35 530.47   A 0.76 0.75 45.4 0 0 936.12 530.46   Q 924.66 546.44 915.25 561.25   C 913.46 564.07 912.29 566.16 908.74 566.05   Q 898.75 565.73 889.34 565.93   A 0.86 0.85 -82.2 0 1 888.51 564.83   Q 889.31 562.10 890.87 560.12   Q 895.84 553.82 899.32 548.81   Q 907.35 537.25 918.38 523.13   Q 920.12 520.91 920.82 518.87   A 2.15 2.14 -53.8 0 0 920.52 516.91   L 891.53 477.06   A 2.02 2.02 0.0 0 1 891.99 474.22   Q 892.18 474.07 893.50 474.01   Q 896.32 473.86 911.00 474.00   C 913.78 474.03 914.70 474.77 916.20 477.04   Q 924.56 489.73 935.52 505.58   A 1.65 1.64 -44.6 0 0 938.21 505.60   L 959.92 475.31   A 3.94 3.93 -71.8 0 1 963.18 473.66   L 982.66 473.99   A 1.02 1.01 4.5 0 1 983.65 475.14   Q 983.30 477.51 981.71 479.46   C 971.84 491.50 961.75 505.85 953.36 516.21   A 2.56 2.55 -43.0 0 0 953.25 519.29   L 984.30 563.72   A 1.34 1.33 71.1 0 1 983.28 565.82   Q 977.68 566.12 964.00 566.11   Q 960.36 566.11 958.61 563.23   Q 947.86 545.55 937.35 530.47   Z"/>
<path xmlns="http://www.w3.org/2000/svg" fill="#000000" d="M 874.85 566.06   L 856.74 565.76   A 1.74 1.74 0.0 0 1 855.03 563.97   L 857.26 480.89   A 1.74 1.74 0.0 0 1 858.78 479.21   L 876.95 476.85   A 1.74 1.74 0.0 0 1 878.92 478.62   L 876.62 564.37   A 1.74 1.74 0.0 0 1 874.85 566.06   Z"/>
<rect xmlns="http://www.w3.org/2000/svg" fill="#000000" x="-13.84" y="-13.30" transform="translate(1008.61,554.23) rotate(-6.3)" width="27.68" height="26.60" rx="12.15"/>
</g></g></g></g></svg>