<svg xmlns="http://www.w3.org/2000/svg" direction="ltr" width="1193" height="896.0000000000001" viewBox="2705.5269223329897 27.166854858398438 1193 896.0000000000001" stroke-linecap="round" stroke-linejoin="round" data-color-mode="light" class="tl-container tl-theme__force-sRGB tl-theme__light" style="background-color: transparent;"><defs/><g transform="matrix(1, 0, 0, 1, 2705.5269, 27.1669)" opacity="1"><g data-lovart-layer-name="SVG 2"><g transform="scale(1, 1.0000000000000002)"><g>
<g xmlns="http://www.w3.org/2000/svg" stroke-width="2.00" fill="none" stroke-linecap="butt">
<path stroke="#c7d1c2" d="M 931.00 284.72   Q 930.50 284.10 929.78 284.30"/>
<path stroke="#808080" d="M 962.46 333.33   Q 962.27 333.73 962.25 334.21   A 0.54 0.53 13.5 0 0 962.56 334.71   Q 963.15 335.00 963.81 334.46"/>
<path stroke="#c7d1c2" d="M 964.98 334.51   L 975.70 335.47"/>
<path stroke="#808080" d="M 1008.58 426.02   L 1003.53 426.16"/>
<path stroke="#808080" d="M 1018.21 426.07   L 1019.95 426.15"/>
<path stroke="#808080" d="M 711.83 484.21   Q 712.16 483.10 711.96 482.03"/>
<path stroke="#808080" d="M 712.04 481.57   Q 712.81 479.53 712.72 477.28"/>
<path stroke="#808080" d="M 713.07 475.99   L 713.22 475.30"/>
<path stroke="#808080" d="M 287.43 496.39   L 289.99 497.02   A 0.48 0.47 7.3 0 0 290.58 496.57   L 290.64 493.52"/>
<path stroke="#c7d1c2" d="M 290.64 493.52   L 290.65 488.21"/>
<path stroke="#808080" d="M 290.65 488.21   L 290.68 487.04"/>
<path stroke="#808080" d="M 287.91 563.47   L 288.04 562.51"/>
<path stroke="#c7d1c2" d="M 288.04 562.51   L 288.18 554.76"/>
<path stroke="#808080" d="M 288.18 554.76   L 288.26 552.78"/>
<path stroke="#808080" d="M 289.95 518.80   Q 290.02 518.15 290.06 517.53   Q 290.13 516.70 289.67 516.42   Q 289.15 516.11 288.25 516.26"/>
<path stroke="#808080" d="M 238.03 510.18   Q 237.05 510.42 236.98 510.94"/>
<path stroke="#808080" d="M 212.76 563.26   L 212.96 560.03"/>
<path stroke="#c7d1c2" d="M 213.33 547.32   L 213.48 543.10"/>
<path stroke="#808080" d="M 213.48 543.10   Q 213.35 542.61 213.45 542.03"/>
<path stroke="#808080" d="M 214.83 515.01   Q 215.36 514.33 215.36 513.67   Q 215.35 512.78 214.48 512.85   Q 213.82 512.90 213.17 513.52"/>
<path stroke="#808080" d="M 214.71 492.65   Q 215.00 492.68 215.26 492.62   Q 215.56 492.54 215.66 492.30   Q 215.75 492.09 215.74 491.78"/>
<path stroke="#475142" d="M 288.18 554.76   Q 288.13 554.79 288.07 554.83"/>
<path stroke="#475142" d="M 290.65 488.21   Q 290.60 488.23 290.55 488.25"/>
<path stroke="#475142" d="M 288.04 562.51   L 287.93 557.31"/>
<path stroke="#475142" d="M 290.64 493.52   Q 290.60 493.51 290.55 493.50"/>
<path stroke="#475142" d="M 213.48 543.10   Q 213.42 543.11 213.35 543.12"/>
<path stroke="#808080" d="M 453.97 556.92   L 452.08 555.28   A 0.42 0.42 0.0 0 0 451.40 555.70   Q 451.68 556.92 451.51 558.18"/>
<path stroke="#808080" d="M 429.92 564.46   L 429.90 555.32"/>
<path stroke="#c7d1c2" d="M 430.04 552.46   Q 430.28 551.48 430.13 550.44"/>
<path stroke="#808080" d="M 430.13 550.44   L 430.21 546.33"/>
<path stroke="#808080" d="M 430.32 544.79   L 430.38 541.79"/>
<path stroke="#808080" d="M 431.11 527.15   L 431.30 519.93"/>
<path stroke="#c7d1c2" d="M 431.30 519.93   L 431.44 500.21"/>
<path stroke="#808080" d="M 431.21 497.68   L 431.14 493.23"/>
<path stroke="#808080" d="M 430.40 485.46   L 430.43 484.75"/>
<path stroke="#c7d1c2" d="M 430.43 484.75   L 430.32 479.51"/>
<path stroke="#808080" d="M 430.32 479.51   Q 430.34 478.76 430.08 478.45"/>
<path stroke="#808080" d="M 450.23 485.27   Q 450.90 486.06 450.62 487.59   A 0.56 0.56 0.0 0 0 451.60 488.06   L 453.82 485.44"/>
<path stroke="#475142" d="M 431.30 519.93   L 431.23 517.30"/>
<path stroke="#475142" d="M 430.13 550.44   Q 430.10 550.45 430.06 550.46"/>
<path stroke="#475142" d="M 430.43 484.75   Q 430.40 484.75 430.36 484.74"/>
<path stroke="#475142" d="M 430.32 479.51   L 430.22 481.72"/>
<path stroke="#808080" d="M 566.96 530.08   L 566.21 530.16"/>
<path stroke="#808080" d="M 560.00 530.45   Q 558.79 529.97 557.81 530.22   A 0.56 0.56 0.0 0 0 557.41 530.91   Q 557.53 531.34 557.90 531.85"/>
<path stroke="#808080" d="M 612.12 540.61   L 613.79 539.49"/>
<path stroke="#808080" d="M 537.63 538.73   Q 537.87 538.39 537.47 538.01"/>
<path stroke="#808080" d="M 536.48 535.22   Q 536.48 534.78 536.26 534.47"/>
<path stroke="#808080" d="M 535.47 531.96   L 535.39 531.21"/>
<path stroke="#c7d1c2" d="M 535.39 531.21   L 535.37 530.46"/>
<path stroke="#808080" d="M 535.37 530.46   Q 535.33 530.00 535.00 529.71"/>
<path stroke="#c7d1c2" d="M 535.00 529.46   Q 535.19 528.69 534.79 527.98"/>
<path stroke="#808080" d="M 534.19 525.21   Q 534.13 524.76 534.31 524.45"/>
<path stroke="#c7d1c2" d="M 534.31 524.45   Q 533.73 516.65 535.76 509.06"/>
<path stroke="#808080" d="M 535.76 509.06   Q 535.82 508.92 535.87 508.79"/>
<path stroke="#c7d1c2" d="M 535.87 508.79   L 535.96 507.79"/>
<path stroke="#808080" d="M 536.07 507.54   L 536.61 506.07"/>
<path stroke="#475142" d="M 534.31 524.45   Q 534.17 524.50 534.03 524.54"/>
<path stroke="#475142" d="M 533.88 522.67   L 533.91 516.34"/>
<path stroke="#475142" d="M 535.76 509.06   Q 535.59 509.05 535.43 509.04"/>
<path stroke="#475142" d="M 535.37 530.46   L 535.26 531.19"/>
<path stroke="#475142" d="M 535.39 531.21   Q 535.33 531.20 535.26 531.19"/>
<path stroke="#475142" d="M 535.87 508.79   L 535.74 508.29"/>
<path stroke="#c7d1c2" d="M 639.83 559.54   Q 640.11 558.78 639.89 557.98"/>
<path stroke="#808080" d="M 639.89 557.98   L 639.91 556.79"/>
<path stroke="#808080" d="M 640.83 540.98   L 640.90 538.54"/>
<path stroke="#808080" d="M 641.12 532.78   L 641.18 530.29"/>
<path stroke="#808080" d="M 641.63 522.71   L 641.68 521.79"/>
<path stroke="#c7d1c2" d="M 641.83 520.79   Q 642.05 520.17 641.88 519.46"/>
<path stroke="#808080" d="M 641.88 519.46   L 642.05 517.04"/>
<path stroke="#c7d1c2" d="M 642.05 517.04   L 642.30 515.07"/>
<path stroke="#808080" d="M 642.30 515.07   L 641.96 494.01"/>
<path stroke="#c7d1c2" d="M 641.37 488.30   L 641.29 484.51"/>
<path stroke="#808080" d="M 641.29 484.51   Q 641.25 484.36 641.20 484.21"/>
<path stroke="#c7d1c2" d="M 641.20 484.21   Q 641.21 483.80 641.04 483.46"/>
<path stroke="#808080" d="M 661.18 487.68   L 662.12 491.48   A 0.26 0.26 0.0 0 0 662.59 491.56   L 663.88 489.57"/>
<path stroke="#475142" d="M 642.30 515.07   Q 642.23 515.06 642.17 515.06"/>
<path stroke="#475142" d="M 639.89 557.98   Q 639.87 557.97 639.86 557.96"/>
<path stroke="#475142" d="M 641.88 519.46   Q 641.86 519.46 641.84 519.46"/>
<path stroke="#475142" d="M 642.05 517.04   Q 642.08 516.52 641.93 516.03"/>
<path stroke="#475142" d="M 641.29 484.51   L 641.18 487.46"/>
<path stroke="#475142" d="M 641.20 484.21   Q 641.13 484.25 641.05 484.29"/>
<path stroke="#808080" d="M 965.21 473.67   L 964.18 473.61"/>
<path stroke="#808080" d="M 953.64 516.45   Q 951.89 518.17 953.65 519.99"/>
<path stroke="#808080" d="M 939.23 532.65   Q 938.62 531.48 937.59 530.68   A 0.76 0.76 0.0 0 0 936.73 530.63   L 935.49 531.40"/>
<path stroke="#808080" d="M 920.85 519.21   Q 921.12 518.50 920.85 518.46"/>
<path stroke="#808080" d="M 935.82 506.25   Q 936.05 506.66 936.35 506.94   A 0.62 0.61 -43.1 0 0 937.16 506.96   Q 938.34 506.02 938.75 504.43"/>
<path stroke="#808080" d="M 388.25 531.13   Q 388.77 530.50 388.75 529.25"/>
<path stroke="#808080" d="M 388.75 529.25   Q 388.91 528.93 388.90 528.53"/>
<path stroke="#808080" d="M 389.12 528.04   L 389.97 520.80"/>
<path stroke="#808080" d="M 390.11 518.00   L 390.20 515.29"/>
<path stroke="#808080" d="M 390.39 514.79   L 390.92 495.85"/>
<path stroke="#808080" d="M 332.30 582.78   Q 332.68 582.41 332.83 581.79"/>
<path stroke="#c7d1c2" d="M 332.83 581.79   Q 333.00 581.03 332.75 581.12"/>
<path stroke="#808080" d="M 332.75 581.12   Q 332.70 580.98 332.64 580.84"/>
<path stroke="#808080" d="M 389.36 554.97   Q 389.92 552.76 388.98 553.21"/>
<path stroke="#475142" d="M 332.75 581.12   Q 332.70 581.45 332.83 581.79"/>
<path stroke="#808080" d="M 1022.57 551.02   Q 1022.46 551.53 1022.75 551.96"/>
<path stroke="#808080" d="M 1022.79 552.27   L 1022.88 554.81"/>
<path stroke="#808080" d="M 1022.85 555.20   Q 1022.65 555.70 1022.71 556.20"/>
<path stroke="#c7d1c2" d="M 796.69 378.01   Q 799.64 370.46 803.15 363.16   C 810.23 348.48 821.60 343.45 837.05 341.07   Q 849.13 339.21 865.75 338.54   C 886.43 337.70 924.60 337.68 953.77 335.13   A 0.88 0.88 0.0 0 0 954.57 334.30   Q 954.79 330.48 954.84 324.74   C 954.89 319.64 952.48 316.30 947.77 314.41   C 937.31 310.21 924.24 311.19 912.82 312.38   Q 885.31 315.25 882.26 315.53   Q 874.20 316.27 865.50 315.55   C 859.62 315.07 852.90 313.79 850.58 307.66   Q 849.73 305.40 848.14 300.37   C 846.79 296.10 842.85 295.29 838.88 294.86   Q 829.40 293.83 821.74 294.45   C 811.06 295.30 806.05 300.88 803.96 310.99   Q 799.23 334.00 797.37 360.26   Q 796.71 369.47 796.06 377.86   A 0.33 0.33 0.0 0 0 796.69 378.01"/>
<path stroke="#808080" d="M 914.78 436.45   Q 922.46 436.77 929.97 435.72   C 939.55 434.38 944.55 426.95 948.95 419.20   C 958.65 402.11 967.07 380.12 972.49 366.72   Q 976.26 357.39 978.31 348.08   A 2.50 2.50 0.0 0 0 976.64 345.17   Q 970.38 343.15 963.75 343.72   Q 952.13 344.71 940.53 346.09"/>
<path stroke="#475142" d="M 946.03 408.24   Q 952.05 392.30 954.55 388.09   C 960.22 378.54 965.17 370.80 966.75 362.27   C 967.86 356.32 966.18 351.07 959.22 351.07   Q 946.53 351.06 935.73 352.16"/>
<path stroke="#475142" d="M 944.96 410.61   L 939.49 418.37"/>
<path stroke="#475142" d="M 955.11 364.94   L 956.29 362.74   A 0.52 0.52 0.0 0 0 956.03 362.01   Q 955.36 361.74 954.45 361.98"/>
<path stroke="#c7d1c2" d="M 845.78 366.40   Q 846.59 366.53 847.06 366.29"/>
<path stroke="#c7d1c2" d="M 847.06 366.29   Q 848.02 366.54 848.01 366.04"/>
<path stroke="#475142" d="M 847.04 366.09   Q 847.05 366.19 847.06 366.29"/>
<path stroke="#475142" d="M 847.06 366.29   L 846.29 366.25"/>
<path stroke="#808080" d="M 556.27 510.23   Q 556.73 512.09 557.25 512.07   Q 557.96 512.05 558.75 511.70"/>
<path stroke="#808080" d="M 604.85 506.23   Q 606.58 506.23 606.50 505.00   Q 606.43 503.90 605.53 502.73"/>
</g>
<path xmlns="http://www.w3.org/2000/svg" fill="#ffffff" d="M 931.00 284.72   Q 930.50 284.10 929.78 284.30   Q 927.81 283.11 927.38 281.63   Q 924.20 270.52 922.87 265.67   C 921.58 260.92 921.37 257.35 921.68 252.49   Q 921.94 248.21 925.54 246.67   A 1.35 1.35 0.0 0 1 926.48 246.62   Q 929.38 247.53 930.51 249.73   Q 937.95 264.25 934.28 280.26   Q 933.61 283.18 931.00 284.72   Z"/>
<ellipse xmlns="http://www.w3.org/2000/svg" fill="#ffffff" cx="0.00" cy="0.00" transform="translate(967.42,270.77) rotate(-47.0)" rx="21.80" ry="7.27"/>
<path xmlns="http://www.w3.org/2000/svg" fill="#8ea284" d="M 931.00 284.72   Q 930.19 284.76 929.78 284.30   Q 930.50 284.10 931.00 284.72   Z"/>
<path xmlns="http://www.w3.org/2000/svg" fill="#ffffff" d="M 962.46 333.33   Q 962.27 333.73 962.25 334.21   A 0.54 0.53 13.5 0 0 962.56 334.71   Q 963.15 335.00 963.81 334.46   Q 964.21 334.67 964.98 334.51   L 975.70 335.47   C 979.49 336.24 984.33 337.94 985.62 342.02   Q 987.08 346.65 985.62 351.20   Q 983.31 358.45 981.95 363.22   Q 980.77 367.35 980.09 368.57   C 977.69 372.93 976.95 377.70 974.75 382.13   Q 973.86 383.94 972.06 388.57   Q 966.79 402.17 961.79 413.29   Q 959.48 418.40 950.35 435.23   Q 946.76 441.86 943.69 444.61   Q 938.70 449.10 931.14 451.93   Q 918.17 456.78 908.16 459.01   C 902.80 460.21 897.64 460.36 892.02 461.54   Q 886.19 462.77 883.25 463.01   C 862.69 464.69 849.43 466.16 830.00 465.80   C 820.68 465.62 813.80 464.39 803.12 463.27   C 797.55 462.68 793.02 461.10 787.09 459.39   Q 778.83 457.02 775.56 448.69   C 772.27 440.33 772.22 430.55 772.10 421.25   C 771.78 394.96 774.18 369.65 778.39 342.58   Q 779.95 332.53 782.00 325.45   Q 783.29 321.01 786.96 309.72   C 788.26 305.71 791.47 300.82 795.39 297.62   C 805.42 289.45 817.92 284.67 830.71 286.40   Q 841.66 287.89 845.87 289.42   C 852.41 291.80 853.05 297.23 855.04 303.37   A 4.38 4.36 5.3 0 0 857.11 305.85   C 862.31 308.66 870.33 308.44 875.49 307.99   Q 882.90 307.34 904.56 304.87   Q 917.56 303.38 928.57 303.67   C 937.55 303.91 945.69 304.86 953.46 309.28   C 961.48 313.84 964.02 324.31 962.46 333.33   Z   M 796.69 378.01   Q 799.64 370.46 803.15 363.16   C 810.23 348.48 821.60 343.45 837.05 341.07   Q 849.13 339.21 865.75 338.54   C 886.43 337.70 924.60 337.68 953.77 335.13   A 0.88 0.88 0.0 0 0 954.57 334.30   Q 954.79 330.48 954.84 324.74   C 954.89 319.64 952.48 316.30 947.77 314.41   C 937.31 310.21 924.24 311.19 912.82 312.38   Q 885.31 315.25 882.26 315.53   Q 874.20 316.27 865.50 315.55   C 859.62 315.07 852.90 313.79 850.58 307.66   Q 849.73 305.40 848.14 300.37   C 846.79 296.10 842.85 295.29 838.88 294.86   Q 829.40 293.83 821.74 294.45   C 811.06 295.30 806.05 300.88 803.96 310.99   Q 799.23 334.00 797.37 360.26   Q 796.71 369.47 796.06 377.86   A 0.33 0.33 0.0 0 0 796.69 378.01   Z   M 940.53 346.09   Q 932.84 346.23 925.16 347.00   Q 915.92 347.92 910.32 347.97   Q 886.25 348.18 866.26 348.72   Q 850.42 349.14 834.01 351.76   C 827.15 352.86 818.17 356.25 814.29 362.06   C 812.45 364.81 810.37 368.15 809.04 371.33   Q 801.15 390.31 795.84 408.53   Q 793.26 417.40 792.22 425.52   C 791.13 434.03 796.57 437.65 804.00 439.02   Q 806.69 439.52 818.76 441.23   C 824.43 442.03 833.40 441.67 840.75 440.78   C 849.58 439.70 857.36 439.41 866.23 438.49   C 883.73 436.68 898.54 436.83 914.78 436.45   Q 922.46 436.77 929.97 435.72   C 939.55 434.38 944.55 426.95 948.95 419.20   C 958.65 402.11 967.07 380.12 972.49 366.72   Q 976.26 357.39 978.31 348.08   A 2.50 2.50 0.0 0 0 976.64 345.17   Q 970.38 343.15 963.75 343.72   Q 952.13 344.71 940.53 346.09   Z"/>
<path xmlns="http://www.w3.org/2000/svg" fill="#ffffff" d="M 972.74 306.00   A 1.41 1.41 0.0 0 1 973.18 304.72   Q 982.97 295.87 996.32 292.34   Q 1001.82 290.89 1005.57 291.33   A 2.05 2.05 0.0 0 1 1006.55 291.71   Q 1007.77 292.60 1008.68 294.86   A 1.22 1.21 49.8 0 1 1008.59 295.97   Q 1004.82 302.05 1001.44 304.40   Q 993.77 309.73 982.76 311.49   A 4.21 4.14 -43.4 0 1 981.27 311.46   C 977.10 310.62 973.46 310.08 972.74 306.00   Z"/>
<path xmlns="http://www.w3.org/2000/svg" fill="#8ea284" d="M 796.69 378.01   A 0.33 0.33 0.0 0 1 796.06 377.86   Q 796.71 369.47 797.37 360.26   Q 799.23 334.00 803.96 310.99   C 806.05 300.88 811.06 295.30 821.74 294.45   Q 829.40 293.83 838.88 294.86   C 842.85 295.29 846.79 296.10 848.14 300.37   Q 849.73 305.40 850.58 307.66   C 852.90 313.79 859.62 315.07 865.50 315.55   Q 874.20 316.27 882.26 315.53   Q 885.31 315.25 912.82 312.38   C 924.24 311.19 937.31 310.21 947.77 314.41   C 952.48 316.30 954.89 319.64 954.84 324.74   Q 954.79 330.48 954.57 334.30   A 0.88 0.88 0.0 0 1 953.77 335.13   C 924.60 337.68 886.43 337.70 865.75 338.54   Q 849.13 339.21 837.05 341.07   C 821.60 343.45 810.23 348.48 803.15 363.16   Q 799.64 370.46 796.69 378.01   Z"/>
<path xmlns="http://www.w3.org/2000/svg" fill="#000000" d="M 962.46 333.33   Q 962.24 334.32 963.81 334.46   Q 963.15 335.00 962.56 334.71   A 0.54 0.53 13.5 0 1 962.25 334.21   Q 962.27 333.73 962.46 333.33   Z"/>
<path xmlns="http://www.w3.org/2000/svg" fill="#8ea284" d="M 975.70 335.47   L 964.98 334.51   Q 970.54 333.76 975.70 335.47   Z"/>
<path xmlns="http://www.w3.org/2000/svg" fill="#000000" d="M 914.78 436.45   Q 920.89 436.01 926.99 435.67   Q 936.17 435.17 941.78 428.57   Q 943.71 426.31 946.71 420.24   A 6.96 6.91 -11.7 0 1 947.71 418.73   Q 949.81 416.30 951.74 412.01   Q 955.72 403.15 956.78 397.97   A 1.12 1.00 -25.7 0 1 956.93 397.61   L 959.16 394.20   A 1.02 0.90 71.2 0 0 959.31 393.84   L 960.98 386.93   A 2.26 2.23 -12.8 0 1 961.76 385.71   L 963.83 384.09   A 1.42 1.41 75.9 0 0 964.36 383.20   L 965.46 375.99   A 0.98 0.95 -21.7 0 1 965.66 375.54   C 966.98 373.90 969.08 372.12 969.24 370.02   Q 969.50 366.69 969.61 364.86   A 0.63 0.63 0.0 0 0 968.53 364.38   C 966.48 366.46 965.64 370.54 964.49 373.30   A 3.07 2.98 76.2 0 1 964.11 373.95   Q 960.90 378.13 960.66 381.47   C 960.47 384.29 958.68 386.29 957.11 388.11   A 1.27 1.14 -18.6 0 0 956.90 388.48   L 954.72 394.03   A 0.76 0.70 76.3 0 1 954.61 394.23   Q 951.56 398.72 951.13 400.15   Q 950.01 403.81 949.69 404.17   Q 947.97 406.06 946.03 408.24   Q 952.05 392.30 954.55 388.09   C 960.22 378.54 965.17 370.80 966.75 362.27   C 967.86 356.32 966.18 351.07 959.22 351.07   Q 946.53 351.06 935.73 352.16   L 948.03 348.29   A 0.30 0.29 -47.2 0 0 948.01 347.72   L 940.53 346.09   Q 952.13 344.71 963.75 343.72   Q 970.38 343.15 976.64 345.17   A 2.50 2.50 0.0 0 1 978.31 348.08   Q 976.26 357.39 972.49 366.72   C 967.07 380.12 958.65 402.11 948.95 419.20   C 944.55 426.95 939.55 434.38 929.97 435.72   Q 922.46 436.77 914.78 436.45   Z   M 971.63 360.83   Q 971.58 361.10 971.91 361.29   A 0.11 0.10 24.9 0 0 972.07 361.24   Q 972.20 360.87 972.16 360.78   A 0.28 0.27 39.3 0 0 971.63 360.83   Z"/>
<path xmlns="http://www.w3.org/2000/svg" fill="#8ea284" d="M 946.03 408.24   Q 945.89 409.51 944.96 410.61   L 939.49 418.37   Q 934.92 416.38 935.85 411.55   Q 936.75 406.82 937.79 404.09   Q 943.95 387.88 952.03 372.53   Q 953.42 369.89 955.11 364.94   L 956.29 362.74   A 0.52 0.52 0.0 0 0 956.03 362.01   Q 955.36 361.74 954.45 361.98   Q 951.16 362.20 947.85 362.38   C 939.27 362.85 932.39 365.07 924.74 364.96   C 918.55 364.88 907.98 364.67 904.70 359.05   A 0.72 0.71 52.9 0 1 904.82 358.17   C 908.13 354.95 913.80 354.99 918.18 354.59   Q 920.35 354.40 925.61 353.43   Q 930.70 352.51 935.73 352.16   Q 946.53 351.06 959.22 351.07   C 966.18 351.07 967.86 356.32 966.75 362.27   C 965.17 370.80 960.22 378.54 954.55 388.09   Q 952.05 392.30 946.03 408.24   Z"/>
<path xmlns="http://www.w3.org/2000/svg" fill="#000000" d="M 955.11 364.94   Q 955.04 363.49 954.45 361.98   Q 955.36 361.74 956.03 362.01   A 0.52 0.52 0.0 0 1 956.29 362.74   L 955.11 364.94   Z"/>
<path xmlns="http://www.w3.org/2000/svg" fill="#ffffff" d="M 845.78 366.40   Q 846.59 366.53 847.06 366.29   Q 848.02 366.54 848.01 366.04   Q 864.86 363.36 881.23 367.10   C 884.83 367.93 888.41 369.49 890.88 372.20   A 0.89 0.87 -52.0 0 1 890.99 373.22   Q 888.92 376.93 884.41 377.52   Q 867.68 379.72 854.72 378.53   Q 846.92 377.82 836.58 373.15   A 0.78 0.77 -67.3 0 1 836.18 372.16   L 837.09 369.83   A 1.29 1.28 -88.4 0 1 837.87 369.09   L 845.78 366.40   Z"/>
<path xmlns="http://www.w3.org/2000/svg" fill="#000000" d="M 847.04 366.09   Q 847.05 366.19 847.06 366.29   L 846.29 366.25   Q 846.62 366.07 847.04 366.09   Z"/>
<path xmlns="http://www.w3.org/2000/svg" fill="#8ea284" d="M 848.01 366.04   Q 848.02 366.54 847.06 366.29   Q 847.05 366.19 847.04 366.09   L 848.01 366.04   Z"/>
<path xmlns="http://www.w3.org/2000/svg" fill="#8ea284" d="M 846.29 366.25   L 847.06 366.29   Q 846.59 366.53 845.78 366.40   L 846.29 366.25   Z"/>
<path xmlns="http://www.w3.org/2000/svg" fill="#000000" d="M 944.96 410.61   C 944.24 413.08 943.11 417.19 941.01 418.50   Q 940.05 419.10 939.49 418.37   L 944.96 410.61   Z"/>
<path xmlns="http://www.w3.org/2000/svg" fill="#000000" d="M 1008.58 426.02   L 1003.53 426.16   Q 1005.98 425.15 1008.58 426.02   Z"/>
<path xmlns="http://www.w3.org/2000/svg" fill="#ffffff" d="M 1008.58 426.02   L 1018.21 426.07   L 1019.95 426.15   Q 1022.82 426.96 1022.94 428.99   Q 1023.19 433.23 1022.06 449.76   Q 1020.72 469.48 1020.62 473.89   C 1020.47 480.53 1019.40 487.45 1019.39 494.77   C 1019.39 503.09 1018.03 513.96 1017.81 523.06   A 1.60 1.56 66.4 0 1 1017.45 524.01   C 1016.62 525.01 1015.11 525.85 1013.62 525.66   Q 1009.40 525.13 1003.28 525.63   C 999.05 525.97 998.99 522.24 998.95 519.00   Q 998.64 492.75 1000.81 430.00   Q 1000.93 426.74 1003.53 426.16   L 1008.58 426.02   Z"/>
<path xmlns="http://www.w3.org/2000/svg" fill="#000000" d="M 1019.95 426.15   L 1018.21 426.07   Q 1019.11 425.94 1019.95 426.15   Z"/>
<path xmlns="http://www.w3.org/2000/svg" fill="#ffffff" d="M 711.83 484.21   Q 712.16 483.10 711.96 482.03   L 712.04 481.57   Q 712.81 479.53 712.72 477.28   Q 713.02 476.78 713.07 475.99   L 713.22 475.30   Q 715.22 467.81 716.43 464.94   Q 722.42 450.89 735.83 444.19   C 738.80 442.71 743.89 441.20 746.93 440.46   Q 754.48 438.64 761.71 439.69   A 1.73 1.72 4.6 0 1 763.19 441.42   L 762.94 456.74   A 0.71 0.71 0.0 0 1 762.37 457.42   Q 761.22 457.63 753.44 458.45   C 744.46 459.39 738.30 466.17 735.79 474.56   C 735.02 477.14 734.00 482.50 733.96 485.33   Q 733.90 488.70 733.47 490.50   Q 733.03 492.35 733.71 493.52   Q 734.32 494.56 736.49 494.42   C 739.55 494.21 744.17 493.88 748.51 493.90   Q 778.03 494.04 797.74 493.50   Q 813.94 493.05 829.96 488.43   C 832.21 487.78 834.96 486.49 836.59 485.48   A 0.89 0.89 0.0 0 1 837.58 485.50   Q 840.75 487.67 841.42 489.10   Q 843.65 493.82 846.85 498.11   Q 848.14 499.83 846.50 501.44   A 2.42 2.34 9.8 0 1 845.84 501.89   Q 834.57 507.03 826.75 508.50   C 816.91 510.36 804.89 511.49 792.02 511.60   Q 753.51 511.95 734.20 512.05   A 1.40 1.40 0.0 0 0 732.81 513.38   L 730.10 565.48   A 0.59 0.59 0.0 0 1 729.47 566.04   Q 718.63 565.26 711.17 565.92   A 1.26 1.24 -13.7 0 1 709.90 565.16   Q 709.27 563.67 709.26 562.02   Q 709.20 549.85 709.89 537.85   Q 710.53 526.57 710.78 513.65   Q 711.06 498.92 711.83 484.21   Z"/>
<path xmlns="http://www.w3.org/2000/svg" fill="#ffffff" d="M 287.43 496.39   L 289.99 497.02   A 0.48 0.47 7.3 0 0 290.58 496.57   L 290.64 493.52   L 290.65 488.21   L 290.68 487.04   Q 290.94 483.99 291.01 480.93   Q 291.40 464.68 292.30 445.26   C 292.47 441.77 294.58 441.15 297.73 441.28   Q 303.64 441.53 309.26 441.26   Q 309.70 441.23 313.31 442.29   A 0.71 0.70 8.0 0 1 313.81 442.95   Q 313.90 447.11 313.90 447.18   C 313.41 460.59 313.55 475.15 312.63 489.74   C 311.90 501.33 311.41 506.57 310.97 517.10   Q 309.81 545.33 309.14 564.19   A 1.83 1.83 0.0 0 1 307.23 565.96   Q 299.64 565.62 290.51 566.08   Q 287.92 566.21 287.91 563.47   L 288.04 562.51   L 288.18 554.76   L 288.26 552.78   L 289.95 518.80   Q 290.02 518.15 290.06 517.53   Q 290.13 516.70 289.67 516.42   Q 289.15 516.11 288.25 516.26   Q 282.62 514.87 276.94 513.63   C 267.75 511.62 258.15 510.89 248.75 510.01   Q 243.24 509.49 238.03 510.18   Q 237.05 510.42 236.98 510.94   Q 236.13 512.08 236.11 512.66   Q 235.48 534.64 235.21 548.40   C 235.10 553.67 234.61 558.62 234.34 564.76   A 0.81 0.81 0.0 0 1 233.78 565.49   Q 231.98 566.06 230.49 565.97   Q 224.11 565.58 217.76 565.93   C 215.92 566.03 212.76 565.61 212.76 563.26   L 212.96 560.03   L 213.33 547.32   L 213.48 543.10   Q 213.35 542.61 213.45 542.03   L 214.83 515.01   Q 215.36 514.33 215.36 513.67   Q 215.35 512.78 214.48 512.85   Q 213.82 512.90 213.17 513.52   Q 211.50 513.10 210.24 513.48   Q 207.77 514.23 203.15 516.00   Q 199.72 517.32 196.42 519.33   Q 188.58 524.08 183.48 529.41   A 1.15 1.15 0.0 0 1 181.98 529.55   L 179.37 527.68   A 0.69 0.66 5.3 0 1 179.18 527.46   C 176.64 522.84 173.19 519.96 170.03 516.75   A 0.80 0.80 0.0 0 1 169.94 515.74   C 172.75 511.69 175.10 510.07 179.69 506.80   Q 187.51 501.23 197.06 497.84   Q 203.66 495.50 212.08 493.47   Q 213.42 493.15 214.71 492.65   Q 215.00 492.68 215.26 492.62   Q 215.56 492.54 215.66 492.30   Q 215.75 492.09 215.74 491.78   C 215.79 488.88 215.61 485.81 215.88 483.08   C 217.04 471.13 216.57 459.86 217.25 448.03   Q 217.50 443.73 217.58 443.50   C 218.31 441.56 220.69 441.11 222.78 441.20   Q 228.12 441.44 234.87 441.34   Q 236.58 441.31 238.54 442.42   A 0.82 0.81 -79.3 0 1 238.96 443.04   Q 239.46 447.57 237.33 488.74   Q 237.27 490.01 238.62 490.81   Q 238.73 490.87 241.39 490.93   Q 253.54 491.19 265.84 492.64   C 271.88 493.35 280.18 495.40 287.43 496.39   Z"/>
<path xmlns="http://www.w3.org/2000/svg" fill="#ffffff" d="M 453.97 556.92   L 452.08 555.28   A 0.42 0.42 0.0 0 0 451.40 555.70   Q 451.68 556.92 451.51 558.18   Q 451.22 558.32 451.00 558.67   Q 450.79 558.98 450.80 559.35   C 450.95 568.58 450.11 576.83 450.05 585.82   Q 449.98 594.68 449.23 603.63   A 0.51 0.50 2.4 0 1 448.72 604.09   L 430.27 604.09   A 0.38 0.37 77.7 0 1 429.93 603.87   Q 428.79 601.45 428.85 599.87   Q 429.45 582.15 429.92 564.46   L 429.90 555.32   L 430.04 552.46   Q 430.28 551.48 430.13 550.44   L 430.21 546.33   Q 430.40 545.58 430.32 544.79   L 430.38 541.79   L 431.11 527.15   L 431.30 519.93   L 431.44 500.21   L 431.21 497.68   L 431.14 493.23   L 430.40 485.46   L 430.43 484.75   L 430.32 479.51   Q 430.34 478.76 430.08 478.45   L 430.03 476.94   A 2.20 2.19 -2.8 0 1 432.11 474.66   Q 444.43 473.98 445.21 474.08   Q 446.99 474.33 448.25 474.75   A 1.65 1.64 6.3 0 1 449.34 476.11   L 450.05 482.30   A 1.40 1.39 -33.6 0 1 449.87 483.18   Q 448.41 485.67 450.23 485.27   Q 450.90 486.06 450.62 487.59   A 0.56 0.56 0.0 0 0 451.60 488.06   L 453.82 485.44   Q 456.96 480.60 459.09 479.29   Q 478.42 467.43 499.54 475.78   Q 507.20 478.81 514.13 486.21   Q 519.58 492.03 522.54 501.93   Q 528.21 520.83 521.76 539.09   C 518.07 549.56 512.00 556.76 502.60 562.45   Q 499.20 564.51 494.03 565.69   Q 485.94 567.55 485.01 567.58   Q 470.74 568.19 458.34 561.43   Q 457.03 560.72 453.97 556.92   Z   M 480.0090 490.3553   A 29.71 26.30 -86.2 0 0 451.7978 518.2570   A 29.71 26.30 -86.2 0 0 476.0710 549.6447   A 29.71 26.30 -86.2 0 0 504.2822 521.7430   A 29.71 26.30 -86.2 0 0 480.0090 490.3553   Z"/>
<path xmlns="http://www.w3.org/2000/svg" fill="#ffffff" d="M 566.96 530.08   L 566.21 530.16   L 560.00 530.45   Q 558.79 529.97 557.81 530.22   A 0.56 0.56 0.0 0 0 557.41 530.91   Q 557.53 531.34 557.90 531.85   Q 559.73 536.34 562.24 539.50   Q 568.12 546.89 577.80 548.93   Q 597.14 552.99 612.12 540.61   L 613.79 539.49   L 617.22 539.51   A 1.17 1.17 0.0 0 1 618.14 539.96   L 624.40 547.98   A 3.23 3.12 13.1 0 1 624.73 548.49   L 625.78 550.59   A 1.63 1.62 -35.5 0 1 625.46 552.48   Q 617.69 560.09 607.13 564.03   C 603.60 565.34 598.57 566.03 594.32 566.83   Q 582.77 568.99 570.98 566.13   Q 547.67 560.47 537.63 538.73   Q 537.87 538.39 537.47 538.01   L 536.48 535.22   Q 536.48 534.78 536.26 534.47   L 535.47 531.96   L 535.39 531.21   L 535.37 530.46   Q 535.33 530.00 535.00 529.71   Q 535.00 529.59 535.00 529.46   Q 535.19 528.69 534.79 527.98   L 534.19 525.21   Q 534.13 524.76 534.31 524.45   Q 533.73 516.65 535.76 509.06   Q 535.82 508.92 535.87 508.79   L 535.96 507.79   Q 536.02 507.67 536.07 507.54   L 536.61 506.07   C 541.70 489.41 555.24 476.47 572.48 473.23   Q 587.90 470.33 601.79 475.48   Q 608.46 477.95 614.67 483.73   C 622.14 490.69 625.30 500.94 626.28 511.02   Q 626.56 513.99 626.15 516.04   A 1.63 1.62 -16.5 0 1 625.69 516.88   Q 623.48 519.01 622.89 519.20   C 619.23 520.38 615.74 521.76 611.98 522.78   Q 589.87 528.80 566.96 530.08   Z   M 556.27 510.23   Q 556.73 512.09 557.25 512.07   Q 557.96 512.05 558.75 511.70   Q 560.67 512.11 561.51 512.02   Q 566.74 511.44 572.00 511.59   Q 577.22 511.73 595.76 508.78   Q 597.86 508.44 604.85 506.23   Q 606.58 506.23 606.50 505.00   Q 606.43 503.90 605.53 502.73   Q 602.66 496.15 597.09 492.95   C 584.99 485.99 571.04 488.08 562.26 498.71   Q 558.02 503.84 556.27 510.23   Z"/>
<path xmlns="http://www.w3.org/2000/svg" fill="#ffffff" d="M 639.83 559.54   Q 640.11 558.78 639.89 557.98   L 639.91 556.79   L 640.83 540.98   L 640.90 538.54   L 641.12 532.78   L 641.18 530.29   L 641.63 522.71   L 641.68 521.79   L 641.83 520.79   Q 642.05 520.17 641.88 519.46   L 642.05 517.04   L 642.30 515.07   L 641.96 494.01   L 641.37 488.30   L 641.29 484.51   Q 641.25 484.36 641.20 484.21   Q 641.21 483.80 641.04 483.46   L 640.38 477.57   A 2.40 2.38 -14.8 0 1 641.83 475.09   Q 643.30 474.46 645.94 474.40   C 649.66 474.30 654.86 473.42 659.04 474.35   A 0.73 0.72 -87.3 0 1 659.60 474.98   L 661.18 487.68   L 662.12 491.48   A 0.26 0.26 0.0 0 0 662.59 491.56   L 663.88 489.57   C 664.49 489.44 664.95 489.22 665.10 488.57   Q 666.42 482.52 670.61 479.04   Q 682.19 469.42 697.58 473.70   Q 702.86 475.17 701.17 480.26   Q 700.17 483.28 698.86 487.60   C 698.17 489.89 698.36 492.44 697.55 494.58   A 0.54 0.54 0.0 0 1 696.83 494.89   Q 691.11 492.50 688.71 492.07   C 682.44 490.93 676.39 494.18 671.81 498.71   C 666.48 503.99 663.81 514.63 663.20 521.62   Q 661.13 545.24 660.06 565.02   A 0.84 0.83 -88.2 0 1 659.23 565.81   L 640.75 565.81   A 0.94 0.94 0.0 0 1 639.81 564.87   L 639.83 559.54   Z"/>
<path xmlns="http://www.w3.org/2000/svg" fill="#000000" d="M 965.21 473.67   L 964.18 473.61   L 965.21 473.67   Z"/>
<path xmlns="http://www.w3.org/2000/svg" fill="#ffffff" d="M 388.25 531.13   Q 388.77 530.50 388.75 529.25   Q 388.91 528.93 388.90 528.53   Q 388.96 528.26 389.12 528.04   L 389.97 520.80   L 390.11 518.00   L 390.20 515.29   Q 390.23 514.99 390.39 514.79   L 390.92 495.85   L 392.60 476.61   A 2.22 2.22 0.0 0 1 394.70 474.59   L 411.33 473.77   A 1.00 1.00 0.0 0 1 412.35 474.53   Q 413.70 479.91 413.34 485.51   Q 412.66 495.95 412.52 503.82   C 412.18 523.54 411.13 542.11 410.11 563.74   Q 409.59 574.61 406.23 583.52   C 402.69 592.93 394.35 600.18 385.46 604.23   Q 379.14 607.10 370.13 607.61   C 360.92 608.12 349.65 607.20 340.88 603.13   Q 333.19 599.56 328.48 596.13   A 3.01 3.00 -58.8 0 1 327.56 592.36   L 332.30 582.78   Q 332.68 582.41 332.83 581.79   Q 333.00 581.03 332.75 581.12   Q 332.70 580.98 332.64 580.84   L 336.81 579.89   A 0.96 0.95 57.3 0 1 337.61 580.07   C 347.65 587.87 362.66 592.10 374.99 587.24   Q 385.56 583.07 387.86 572.38   Q 389.55 564.46 389.36 554.97   Q 389.92 552.76 388.98 553.21   Q 387.05 554.02 386.55 554.85   Q 382.10 562.18 373.61 564.38   C 361.34 567.54 347.25 565.88 338.42 555.96   Q 337.44 554.86 334.66 550.81   C 330.71 545.06 328.66 535.39 328.55 529.28   C 328.39 520.48 329.41 512.35 329.87 503.58   Q 330.56 490.30 331.79 476.14   A 1.67 1.67 0.0 0 1 333.37 474.62   L 351.06 473.75   A 0.72 0.72 0.0 0 1 351.79 474.28   L 352.62 477.35   A 3.34 3.25 -51.4 0 1 352.72 478.37   Q 350.69 511.78 350.68 512.01   C 350.07 526.48 348.61 543.12 366.34 546.61   C 368.92 547.12 371.45 546.50 374.15 545.72   Q 384.84 542.62 388.25 531.13   Z"/>
<path xmlns="http://www.w3.org/2000/svg" fill="#ffffff" d="M 964.18 473.61   L 965.21 473.67   L 981.83 474.11   A 0.93 0.92 87.1 0 1 982.72 474.92   L 982.96 477.01   A 2.29 2.26 60.9 0 1 982.51 478.64   L 953.64 516.45   Q 951.89 518.17 953.65 519.99   L 982.74 561.80   A 2.37 2.34 22.9 0 1 983.12 562.72   L 983.57 565.07   A 0.78 0.77 -4.1 0 1 982.77 565.98   C 975.81 565.71 969.99 565.09 964.23 566.25   A 1.86 1.82 -39.9 0 1 963.20 566.17   Q 959.71 564.83 959.20 564.00   Q 951.79 551.90 942.44 538.34   C 941.16 536.48 940.29 534.62 939.23 532.65   Q 938.62 531.48 937.59 530.68   A 0.76 0.76 0.0 0 0 936.73 530.63   L 935.49 531.40   Q 934.54 532.48 933.98 534.35   A 5.76 5.57 -19.0 0 1 933.08 536.12   Q 922.71 549.74 913.75 564.36   A 2.73 2.71 -76.8 0 1 911.70 565.64   Q 908.41 565.98 905.57 565.72   C 900.85 565.29 897.81 565.75 893.24 565.85   Q 891.92 565.88 891.10 565.46   A 2.60 2.60 0.0 0 1 890.14 561.64   Q 905.42 540.02 920.28 520.78   Q 920.82 520.09 920.85 519.21   Q 921.12 518.50 920.85 518.46   Q 920.83 516.98 920.37 516.38   C 913.15 507.03 905.66 497.46 898.79 487.60   Q 894.54 481.49 891.20 477.82   A 0.89 0.89 0.0 0 1 891.09 476.76   C 891.98 475.28 892.76 474.22 894.82 474.28   Q 898.17 474.39 909.25 474.07   C 912.89 473.97 914.76 474.66 916.82 478.13   Q 921.55 486.08 929.29 496.46   Q 932.24 500.42 934.88 505.62   Q 935.05 505.96 935.82 506.25   Q 936.05 506.66 936.35 506.94   A 0.62 0.61 -43.1 0 0 937.16 506.96   Q 938.34 506.02 938.75 504.43   Q 949.36 490.27 959.51 475.76   Q 960.48 474.36 964.18 473.61   Z"/>
<path xmlns="http://www.w3.org/2000/svg" fill="#000000" d="M 713.22 475.30   L 713.07 475.99   Q 713.06 475.58 713.22 475.30   Z"/>
<path xmlns="http://www.w3.org/2000/svg" fill="#000000" d="M 712.72 477.28   Q 712.81 479.53 712.04 481.57   Q 711.80 479.27 712.72 477.28   Z"/>
<path xmlns="http://www.w3.org/2000/svg" fill="#ffffff" d="M 879.32 477.99   Q 879.67 481.18 879.49 483.27   C 878.23 498.55 878.55 510.69 877.66 526.25   Q 876.87 540.05 876.68 557.25   C 876.66 559.57 878.27 566.39 874.27 566.13   C 870.67 565.90 866.69 565.21 863.25 565.48   Q 859.99 565.74 856.26 565.38   A 0.98 0.98 0.0 0 1 855.38 564.43   Q 854.93 546.80 856.07 530.75   C 856.67 522.36 855.89 506.58 856.62 493.23   Q 856.94 487.49 856.92 482.00   A 1.73 1.72 73.8 0 1 857.73 480.52   L 859.96 479.13   A 1.85 1.82 -63.9 0 1 860.67 478.88   L 874.66 477.27   Q 874.67 477.27 874.68 477.27   L 878.69 477.41   A 0.66 0.65 -2.0 0 1 879.32 477.99   Z"/>
<path xmlns="http://www.w3.org/2000/svg" fill="#000000" d="M 430.32 479.51   L 430.22 481.72   L 430.08 478.45   Q 430.34 478.76 430.32 479.51   Z"/>
<path xmlns="http://www.w3.org/2000/svg" fill="#8ea284" d="M 430.43 484.75   Q 430.40 484.75 430.36 484.74   L 430.22 481.72   L 430.32 479.51   L 430.43 484.75   Z"/>
<path xmlns="http://www.w3.org/2000/svg" fill="#000000" d="M 711.96 482.03   Q 712.16 483.10 711.83 484.21   L 711.96 482.03   Z"/>
<path xmlns="http://www.w3.org/2000/svg" fill="#8ea284" d="M 641.20 484.21   Q 641.13 484.25 641.05 484.29   L 641.04 483.46   Q 641.21 483.80 641.20 484.21   Z"/>
<path xmlns="http://www.w3.org/2000/svg" fill="#000000" d="M 453.82 485.44   L 451.60 488.06   A 0.56 0.56 0.0 0 1 450.62 487.59   Q 450.90 486.06 450.23 485.27   Q 451.17 483.92 452.16 484.59   Q 452.94 485.13 453.82 485.44   Z"/>
<path xmlns="http://www.w3.org/2000/svg" fill="#000000" d="M 641.20 484.21   Q 641.25 484.36 641.29 484.51   L 641.18 487.46   L 641.05 484.29   Q 641.13 484.25 641.20 484.21   Z"/>
<path xmlns="http://www.w3.org/2000/svg" fill="#8ea284" d="M 641.37 488.30   L 641.18 487.46   L 641.29 484.51   L 641.37 488.30   Z"/>
<path xmlns="http://www.w3.org/2000/svg" fill="#000000" d="M 430.43 484.75   L 430.40 485.46   L 430.36 484.74   Q 430.40 484.75 430.43 484.75   Z"/>
<path xmlns="http://www.w3.org/2000/svg" fill="#000000" d="M 290.68 487.04   L 290.65 488.21   Q 290.60 488.23 290.55 488.25   L 290.68 487.04   Z"/>
<path xmlns="http://www.w3.org/2000/svg" fill="#000000" d="M 663.88 489.57   L 662.59 491.56   A 0.26 0.26 0.0 0 1 662.12 491.48   L 661.18 487.68   Q 662.90 488.51 663.88 489.57   Z"/>
<path xmlns="http://www.w3.org/2000/svg" fill="#8ea284" d="M 290.65 488.21   L 290.64 493.52   Q 290.60 493.51 290.55 493.50   L 290.55 488.25   Q 290.60 488.23 290.65 488.21   Z"/>
<path xmlns="http://www.w3.org/2000/svg" fill="#000000" d="M 215.74 491.78   Q 215.75 492.09 215.66 492.30   Q 215.56 492.54 215.26 492.62   Q 215.00 492.68 214.71 492.65   L 215.74 491.78   Z"/>
<path xmlns="http://www.w3.org/2000/svg" fill="#000000" d="M 431.21 497.68   L 431.14 493.23   L 431.21 497.68   Z"/>
<path xmlns="http://www.w3.org/2000/svg" fill="#000000" d="M 290.64 493.52   L 290.58 496.57   A 0.48 0.47 7.3 0 1 289.99 497.02   L 287.43 496.39   Q 288.29 496.05 289.19 495.89   Q 290.31 495.69 290.54 495.14   Q 290.79 494.51 290.55 493.50   Q 290.60 493.51 290.64 493.52   Z"/>
<path xmlns="http://www.w3.org/2000/svg" fill="#000000" d="M 642.30 515.07   Q 642.23 515.06 642.17 515.06   L 641.96 494.01   L 642.30 515.07   Z"/>
<path xmlns="http://www.w3.org/2000/svg" fill="#000000" d="M 390.92 495.85   L 390.39 514.79   L 390.92 495.85   Z"/>
<path xmlns="http://www.w3.org/2000/svg" fill="#8ea284" d="M 431.30 519.93   L 431.23 517.30   L 431.44 500.21   L 431.30 519.93   Z"/>
<path xmlns="http://www.w3.org/2000/svg" fill="#000000" d="M 604.85 506.23   Q 605.53 504.86 605.53 502.73   Q 606.43 503.90 606.50 505.00   Q 606.58 506.23 604.85 506.23   Z"/>
<path xmlns="http://www.w3.org/2000/svg" fill="#000000" d="M 938.75 504.43   Q 938.34 506.02 937.16 506.96   A 0.62 0.61 -43.1 0 1 936.35 506.94   Q 936.05 506.66 935.82 506.25   Q 936.92 504.83 938.75 504.43   Z"/>
<path xmlns="http://www.w3.org/2000/svg" fill="#000000" d="M 536.61 506.07   L 536.07 507.54   Q 535.94 506.44 536.61 506.07   Z"/>
<path xmlns="http://www.w3.org/2000/svg" fill="#8ea284" d="M 535.96 507.79   L 535.87 508.79   L 535.74 508.29   L 535.96 507.79   Z"/>
<path xmlns="http://www.w3.org/2000/svg" fill="#000000" d="M 535.74 508.29   L 535.87 508.79   Q 535.82 508.92 535.76 509.06   Q 535.59 509.05 535.43 509.04   L 535.74 508.29   Z"/>
<path xmlns="http://www.w3.org/2000/svg" fill="#8ea284" d="M 535.43 509.04   Q 535.59 509.05 535.76 509.06   Q 533.73 516.65 534.31 524.45   Q 534.17 524.50 534.03 524.54   L 533.88 522.67   L 533.91 516.34   L 535.43 509.04   Z"/>
<path xmlns="http://www.w3.org/2000/svg" fill="#000000" d="M 238.03 510.18   L 236.98 510.94   Q 237.05 510.42 238.03 510.18   Z"/>
<path xmlns="http://www.w3.org/2000/svg" fill="#000000" d="M 558.75 511.70   Q 557.96 512.05 557.25 512.07   Q 556.73 512.09 556.27 510.23   Q 557.54 511.46 558.75 511.70   Z"/>
<path xmlns="http://www.w3.org/2000/svg" fill="#000000" d="M 214.83 515.01   Q 214.59 513.61 213.17 513.52   Q 213.82 512.90 214.48 512.85   Q 215.35 512.78 215.36 513.67   Q 215.36 514.33 214.83 515.01   Z"/>
<path xmlns="http://www.w3.org/2000/svg" fill="#8ea284" d="M 642.30 515.07   L 642.05 517.04   Q 642.08 516.52 641.93 516.03   Q 641.99 515.44 642.17 515.06   Q 642.23 515.06 642.30 515.07   Z"/>
<path xmlns="http://www.w3.org/2000/svg" fill="#000000" d="M 390.20 515.29   L 390.11 518.00   L 390.20 515.29   Z"/>
<path xmlns="http://www.w3.org/2000/svg" fill="#000000" d="M 641.93 516.03   Q 642.08 516.52 642.05 517.04   L 641.88 519.46   Q 641.86 519.46 641.84 519.46   L 641.93 516.03   Z"/>
<path xmlns="http://www.w3.org/2000/svg" fill="#000000" d="M 289.95 518.80   Q 289.39 517.26 288.25 516.26   Q 289.15 516.11 289.67 516.42   Q 290.13 516.70 290.06 517.53   Q 290.02 518.15 289.95 518.80   Z"/>
<path xmlns="http://www.w3.org/2000/svg" fill="#000000" d="M 533.91 516.34   L 533.88 522.67   L 533.91 516.34   Z"/>
<path xmlns="http://www.w3.org/2000/svg" fill="#000000" d="M 953.64 516.45   Q 954.12 518.21 953.65 519.99   Q 951.89 518.17 953.64 516.45   Z"/>
<path xmlns="http://www.w3.org/2000/svg" fill="#000000" d="M 431.23 517.30   L 431.30 519.93   L 431.11 527.15   L 431.23 517.30   Z"/>
<path xmlns="http://www.w3.org/2000/svg" fill="#000000" d="M 920.85 519.21   L 920.85 518.46   Q 921.12 518.50 920.85 519.21   Z"/>
<path xmlns="http://www.w3.org/2000/svg" fill="#8ea284" d="M 641.88 519.46   Q 642.05 520.17 641.83 520.79   L 641.84 519.46   Q 641.86 519.46 641.88 519.46   Z"/>
<path xmlns="http://www.w3.org/2000/svg" fill="#000000" d="M 389.97 520.80   L 389.12 528.04   L 389.97 520.80   Z"/>
<path xmlns="http://www.w3.org/2000/svg" fill="#000000" d="M 641.68 521.79   L 641.63 522.71   L 641.68 521.79   Z"/>
<path xmlns="http://www.w3.org/2000/svg" fill="#000000" d="M 534.31 524.45   Q 534.13 524.76 534.19 525.21   L 534.03 524.54   Q 534.17 524.50 534.31 524.45   Z"/>
<path xmlns="http://www.w3.org/2000/svg" fill="#8ea284" d="M 535.00 529.46   Q 534.72 528.80 534.79 527.98   Q 535.19 528.69 535.00 529.46   Z"/>
<path xmlns="http://www.w3.org/2000/svg" fill="#000000" d="M 388.90 528.53   Q 388.91 528.93 388.75 529.25   L 388.90 528.53   Z"/>
<path xmlns="http://www.w3.org/2000/svg" fill="#000000" d="M 388.75 529.25   Q 388.77 530.50 388.25 531.13   Q 388.25 530.19 388.75 529.25   Z"/>
<path xmlns="http://www.w3.org/2000/svg" fill="#000000" d="M 535.37 530.46   L 535.26 531.19   Q 534.88 530.59 535.00 529.71   Q 535.33 530.00 535.37 530.46   Z"/>
<path xmlns="http://www.w3.org/2000/svg" fill="#000000" d="M 560.00 530.45   Q 559.26 531.20 557.90 531.85   Q 557.53 531.34 557.41 530.91   A 0.56 0.56 0.0 0 1 557.81 530.22   Q 558.79 529.97 560.00 530.45   Z"/>
<path xmlns="http://www.w3.org/2000/svg" fill="#000000" d="M 566.96 530.08   L 566.21 530.16   L 566.96 530.08   Z"/>
<path xmlns="http://www.w3.org/2000/svg" fill="#000000" d="M 641.18 530.29   L 641.12 532.78   L 641.18 530.29   Z"/>
<path xmlns="http://www.w3.org/2000/svg" fill="#8ea284" d="M 535.39 531.21   Q 535.33 531.20 535.26 531.19   L 535.37 530.46   L 535.39 531.21   Z"/>
<path xmlns="http://www.w3.org/2000/svg" fill="#000000" d="M 939.23 532.65   Q 937.20 533.16 935.49 531.40   L 936.73 530.63   A 0.76 0.76 0.0 0 1 937.59 530.68   Q 938.62 531.48 939.23 532.65   Z"/>
<path xmlns="http://www.w3.org/2000/svg" fill="#000000" d="M 535.39 531.21   L 535.47 531.96   Q 535.27 531.64 535.26 531.19   Q 535.33 531.20 535.39 531.21   Z"/>
<path xmlns="http://www.w3.org/2000/svg" fill="#000000" d="M 536.48 535.22   Q 536.28 534.91 536.26 534.47   Q 536.48 534.78 536.48 535.22   Z"/>
<path xmlns="http://www.w3.org/2000/svg" fill="#000000" d="M 537.63 538.73   L 537.47 538.01   Q 537.87 538.39 537.63 538.73   Z"/>
<path xmlns="http://www.w3.org/2000/svg" fill="#000000" d="M 640.90 538.54   L 640.83 540.98   L 640.90 538.54   Z"/>
<path xmlns="http://www.w3.org/2000/svg" fill="#000000" d="M 613.79 539.49   L 612.12 540.61   Q 612.12 539.54 613.79 539.49   Z"/>
<path xmlns="http://www.w3.org/2000/svg" fill="#ffffff" d="M 1022.57 551.02   Q 1022.46 551.53 1022.75 551.96   A 2.42 0.12 83.9 0 1 1022.79 552.27   L 1022.88 554.81   A 2.99 0.85 -78.7 0 0 1022.85 555.20   Q 1022.65 555.70 1022.71 556.20   A 14.24 13.63 -3.8 0 1 1016.25 565.56   A 14.27 13.66 -3.7 0 1 1003.78 566.90   A 14.28 13.63 -3.5 0 1 995.66 559.71   A 14.25 13.65 -3.7 0 1 1003.75 541.27   A 14.22 13.62 -2.7 0 1 1015.82 542.22   A 14.22 13.62 -3.8 0 1 1022.57 551.02   Z"/>
<path xmlns="http://www.w3.org/2000/svg" fill="#000000" d="M 430.38 541.79   L 430.32 544.79   L 430.38 541.79   Z"/>
<path xmlns="http://www.w3.org/2000/svg" fill="#000000" d="M 213.45 542.03   Q 213.35 542.61 213.48 543.10   Q 213.42 543.11 213.35 543.12   Q 213.30 542.54 213.45 542.03   Z"/>
<path xmlns="http://www.w3.org/2000/svg" fill="#8ea284" d="M 213.48 543.10   L 213.33 547.32   L 213.35 543.12   Q 213.42 543.11 213.48 543.10   Z"/>
<path xmlns="http://www.w3.org/2000/svg" fill="#000000" d="M 430.21 546.33   L 430.13 550.44   Q 430.10 550.45 430.06 550.46   L 430.21 546.33   Z"/>
<path xmlns="http://www.w3.org/2000/svg" fill="#8ea284" d="M 430.13 550.44   Q 430.28 551.48 430.04 552.46   L 430.06 550.46   Q 430.10 550.45 430.13 550.44   Z"/>
<path xmlns="http://www.w3.org/2000/svg" fill="#000000" d="M 1022.75 551.96   Q 1022.46 551.53 1022.57 551.02   A 6.78 1.96 78.2 0 1 1022.75 551.96   Z"/>
<path xmlns="http://www.w3.org/2000/svg" fill="#000000" d="M 1022.88 554.81   L 1022.79 552.27   A 14.24 13.46 18.6 0 1 1022.88 554.81   Z"/>
<path xmlns="http://www.w3.org/2000/svg" fill="#000000" d="M 288.26 552.78   L 288.18 554.76   Q 288.13 554.79 288.07 554.83   Q 287.97 553.74 288.26 552.78   Z"/>
<path xmlns="http://www.w3.org/2000/svg" fill="#000000" d="M 389.36 554.97   Q 389.31 554.06 388.98 553.21   Q 389.92 552.76 389.36 554.97   Z"/>
<path xmlns="http://www.w3.org/2000/svg" fill="#8ea284" d="M 288.18 554.76   L 288.04 562.51   L 287.93 557.31   L 288.07 554.83   Q 288.13 554.79 288.18 554.76   Z"/>
<path xmlns="http://www.w3.org/2000/svg" fill="#000000" d="M 429.90 555.32   L 429.92 564.46   L 429.90 555.32   Z"/>
<path xmlns="http://www.w3.org/2000/svg" fill="#000000" d="M 453.97 556.92   Q 452.71 557.83 451.51 558.18   Q 451.68 556.92 451.40 555.70   A 0.42 0.42 0.0 0 1 452.08 555.28   L 453.97 556.92   Z"/>
<path xmlns="http://www.w3.org/2000/svg" fill="#000000" d="M 1022.85 555.20   A 7.17 3.93 -78.5 0 1 1022.71 556.20   Q 1022.65 555.70 1022.85 555.20   Z"/>
<path xmlns="http://www.w3.org/2000/svg" fill="#000000" d="M 639.91 556.79   L 639.89 557.98   Q 639.87 557.97 639.86 557.96   L 639.91 556.79   Z"/>
<path xmlns="http://www.w3.org/2000/svg" fill="#000000" d="M 287.93 557.31   L 288.04 562.51   L 287.91 563.47   L 287.93 557.31   Z"/>
<path xmlns="http://www.w3.org/2000/svg" fill="#8ea284" d="M 639.89 557.98   Q 640.11 558.78 639.83 559.54   L 639.86 557.96   Q 639.87 557.97 639.89 557.98   Z"/>
<path xmlns="http://www.w3.org/2000/svg" fill="#000000" d="M 212.96 560.03   L 212.76 563.26   Q 212.01 562.00 212.96 560.03   Z"/>
<path xmlns="http://www.w3.org/2000/svg" fill="#000000" d="M 332.75 581.12   Q 332.70 581.45 332.83 581.79   Q 332.68 582.41 332.30 582.78   Q 332.16 581.99 332.64 580.84   Q 332.70 580.98 332.75 581.12   Z"/>
<path xmlns="http://www.w3.org/2000/svg" fill="#8ea284" d="M 332.83 581.79   Q 332.70 581.45 332.75 581.12   Q 333.00 581.03 332.83 581.79   Z"/>
</g></g></g></g></svg>